<svg width="120" height="72" viewBox="0 0 120 72" fill="none" xmlns="http://www.w3.org/2000/svg">
<g clip-path="url(#clip0_235_1397)">
<path d="M109.167 13.4058C124.661 29.3535 122.088 47.162 108.859 60.0164C95.9501 72.5592 77.3661 74.021 62.5143 58.735L71.2058 50.2903C81.2366 60.6134 92.5138 59.5613 100.694 51.6137C109.13 43.4175 110.571 32.1124 100.54 21.7892C90.5094 11.4661 79.234 12.646 70.798 20.8439L62.5685 12.3747C75.7958 -0.481488 94.3781 -1.81367 109.167 13.4058Z" fill="#F58800"/>
<path d="M34.043 14.8221L35.6273 10.3459H51.3089L44.6515 0H29.0854H28.9856C27.1125 0 25.4442 1.17988 24.8193 2.94446L0.505615 71.5563H15.2244L19.0897 59.9622L34.7712 59.7137L35.9651 57.788H35.9966L40.4588 50.5914H22.1969L34.043 14.8221Z" fill="#19191D"/>
<path d="M60.0565 4.014C58.4425 1.52469 55.6783 0.0227051 52.7111 0.0227051H45.0069H42.0309L64.2894 35.9496L42.0309 71.8783H52.7111C55.6836 71.8783 58.4547 70.3693 60.0653 67.8712L79.1762 38.2551C80.1093 36.8074 80.1075 34.9466 79.171 33.5023L60.0565 4.014Z" fill="#19191D"/>
<path d="M68.1651 32.9947L63.4333 25.6948L55.8639 14.0185V14.0203C55.8621 14.015 55.8586 14.0115 55.8569 14.0062L55.0796 12.8071L49.3798 4.014C47.7658 1.52469 45.0016 0.0227051 42.0344 0.0227051H34.3284H31.3524L53.6109 35.9496L31.3524 71.8783H42.0326C42.381 71.8783 42.7276 71.8555 43.0707 71.8153C44.571 71.6192 47.3894 70.849 49.3885 67.8712L68.2754 38.6L68.4977 38.2551C68.594 38.1046 68.6798 37.9488 68.7568 37.7895C69.1735 36.8459 69.5201 35.1374 68.1651 32.9947Z" fill="#F58800"/>
</g>
<defs>
<clipPath id="clip0_235_1397">
<rect width="120" height="71.8868" fill="white"/>
</clipPath>
</defs>
</svg>
