<svg width="81" height="60" viewBox="0 0 81 60" fill="none" xmlns="http://www.w3.org/2000/svg">
<g clip-path="url(#clip0_355_2675)">
<path d="M4.00263 52.2722L5.48564 54.9664L3.08237 59.3604L2.95649 59.591H0L0.362817 58.9267L4.00263 52.2722ZM12.8478 59.591H9.89023L9.76435 59.3604L7.55148 55.3134L6.46726 53.3311L6.42389 53.2518L4.94088 50.5576L4.94617 50.5491L5.06464 50.3323L6.02934 48.5679L6.14252 48.3204H6.70843L6.81844 48.5668L7.78419 50.3323L12.485 58.9267L12.8478 59.591Z" fill="#F58800"/>
<path d="M31.819 48.2791V59.591H29.4612V53.5173L28.2109 54.7824L27.7296 55.2689L27.5995 55.4001L27.168 55.8359L26.8559 56.1511L25.2692 54.5454L24.1808 53.4443L21.823 51.059V48.2781H22.409L24.6515 50.547L26.8559 52.7779L31.3028 48.2781H31.819V48.2791ZM21.823 53.4115L24.1808 55.7925V59.5921H21.823V53.4115Z" fill="#F58800"/>
<path d="M43.132 48.3384V59.591H40.7742V48.3384H43.132Z" fill="#F58800"/>
<path d="M60.8973 57.2057V59.591H52.0638V48.2791H54.4216V57.2057H60.8973Z" fill="#F58800"/>
<path d="M80.8989 53.9954C80.8989 57.0809 78.4173 59.5921 75.3688 59.5921C72.3192 59.5921 69.8387 57.082 69.8387 53.9954C69.8387 50.9088 72.3192 48.3987 75.3688 48.3987C78.4184 48.3987 80.8989 50.9088 80.8989 53.9954ZM75.3688 50.7342C73.5917 50.7342 72.1468 52.1971 72.1468 53.9943C72.1468 55.7915 73.5917 57.2544 75.3688 57.2544C77.1459 57.2544 78.5908 55.7915 78.5908 53.9943C78.5908 52.1971 77.1459 50.7342 75.3688 50.7342Z" fill="#F58800"/>
<path d="M70.0683 8.10046C79.4307 17.7368 77.8758 28.4976 69.8822 36.2649C62.0821 43.8438 50.8527 44.7271 41.8785 35.4906L47.1304 30.3878C53.1915 36.6256 60.0057 35.9898 64.9487 31.1875C70.0461 26.235 70.9167 19.4039 64.8556 13.1662C58.7945 6.92844 51.9814 7.64138 46.8839 12.595L41.9113 7.47743C49.9039 -0.290897 61.1322 -1.09586 70.0683 8.10046Z" fill="#F58800"/>
<path d="M24.6748 8.95621L25.6321 6.25147H35.1077L31.085 0H21.6792H21.6189C20.4871 0 19.479 0.712943 19.1014 1.77918L4.40991 43.2377H13.3037L15.6393 36.2321L25.1149 36.0819L25.8363 34.9183H25.8553L28.5516 30.5698H17.5168L24.6748 8.95621Z" fill="#19191D"/>
<path d="M40.3933 2.42544C39.418 0.921276 37.7478 0.0137024 35.9549 0.0137024H31.2996H29.5013L42.951 21.7225L29.5013 43.4323H35.9549C37.751 43.4323 39.4254 42.5205 40.3986 41.0111L51.9464 23.1156C52.5101 22.2408 52.5091 21.1164 51.9432 20.2437L40.3933 2.42544Z" fill="#19191D"/>
<path d="M45.293 19.937L42.4338 15.526L37.86 8.47064V8.4717C37.8589 8.46852 37.8568 8.46641 37.8557 8.46324L37.3861 7.73866L33.942 2.42544C32.9667 0.921276 31.2964 0.0137024 29.5035 0.0137024H24.8472H23.049L36.4986 21.7225L23.049 43.4323H29.5025C29.713 43.4323 29.9224 43.4186 30.1297 43.3942C31.0362 43.2758 32.7393 42.8104 33.9472 41.0111L45.3596 23.324L45.4939 23.1156C45.5521 23.0246 45.604 22.9305 45.6505 22.8342C45.9022 22.2641 46.1117 21.2317 45.293 19.937Z" fill="#F58800"/>
</g>
<defs>
<clipPath id="clip0_355_2675">
<rect width="80.8989" height="60" fill="white"/>
</clipPath>
</defs>
</svg>
